<svg version="1.2" baseProfile="tiny-ps" xmlns="http://www.w3.org/2000/svg" viewBox="0 0 51 70" width="51" height="70">
	<title>LOGO-svg</title>
	<defs>
		<clipPath clipPathUnits="userSpaceOnUse" id="cp1">
			<path d="m0 0h90v70h-90v-70z" />
		</clipPath>
		<linearGradient id="grd1" gradientUnits="userSpaceOnUse"  x1="25" y1="4" x2="25" y2="64">
			<stop offset="0" stop-color="#005bc6"  />
			<stop offset="1" stop-color="#00b0c8"  />
		</linearGradient>
	</defs>
	<style>
		tspan { white-space:pre }
		.s0 { fill: #051014 }
		.s1 { fill: url(#grd1);stroke: #051014;stroke-width: 3 }
		.s2 { fill: #ffffff }
	</style>
	<g id="Clip-Path" clip-path="url(#cp1)">
		<g id="Layer">
			<path id="Layer" fill-rule="evenodd" class="s0" d="m61.68 28.41c0 0.82-0.15 1.59-0.44 2.3c-0.29 0.7-0.69 1.32-1.2 1.84c-0.51 0.51-1.1 0.92-1.78 1.22c-0.68 0.29-1.4 0.44-2.18 0.44c-0.77 0-1.5-0.15-2.18-0.44c-0.68-0.3-1.27-0.71-1.78-1.22c-0.51-0.52-0.91-1.13-1.2-1.84c-0.29-0.71-0.44-1.48-0.44-2.3c0-0.83 0.15-1.61 0.44-2.32c0.29-0.71 0.69-1.32 1.2-1.84c0.51-0.52 1.11-0.93 1.78-1.22c0.68-0.29 1.41-0.44 2.18-0.44c0.78 0 1.51 0.14 2.18 0.42c0.68 0.27 1.28 0.67 1.78 1.18c0.51 0.51 0.91 1.12 1.2 1.84c0.29 0.71 0.44 1.5 0.44 2.38zm-2.82 0c0-0.45-0.08-0.86-0.23-1.22c-0.14-0.37-0.34-0.68-0.59-0.94c-0.25-0.27-0.55-0.47-0.89-0.6c-0.34-0.14-0.69-0.22-1.08-0.22c-0.38 0-0.75 0.07-1.09 0.22c-0.34 0.14-0.63 0.34-0.88 0.6c-0.25 0.26-0.44 0.57-0.58 0.94c-0.14 0.36-0.22 0.77-0.22 1.22c0 0.42 0.07 0.82 0.22 1.18c0.14 0.36 0.34 0.68 0.58 0.94c0.25 0.27 0.55 0.48 0.88 0.64c0.34 0.15 0.7 0.23 1.09 0.23c0.38 0 0.74-0.07 1.08-0.22c0.34-0.14 0.64-0.35 0.89-0.61c0.25-0.26 0.45-0.57 0.59-0.94c0.15-0.37 0.23-0.78 0.23-1.22zm14.98 0c0 0.82-0.15 1.59-0.44 2.3c-0.29 0.7-0.69 1.32-1.2 1.84c-0.51 0.51-1.1 0.92-1.78 1.22c-0.68 0.29-1.4 0.44-2.18 0.44c-0.77 0-1.5-0.15-2.18-0.44c-0.68-0.3-1.27-0.71-1.78-1.22c-0.51-0.52-0.91-1.13-1.2-1.84c-0.29-0.71-0.44-1.48-0.44-2.3c0-0.83 0.15-1.61 0.44-2.32c0.29-0.71 0.69-1.32 1.2-1.84c0.51-0.52 1.11-0.93 1.78-1.22c0.68-0.29 1.41-0.44 2.18-0.44c0.78 0 1.51 0.14 2.18 0.42c0.68 0.27 1.28 0.67 1.78 1.18c0.51 0.51 0.91 1.12 1.2 1.84c0.29 0.71 0.44 1.5 0.44 2.38zm-2.82 0c0-0.45-0.08-0.86-0.23-1.22c-0.14-0.37-0.34-0.68-0.59-0.94c-0.25-0.27-0.55-0.47-0.89-0.6c-0.33-0.14-0.69-0.22-1.08-0.22c-0.38 0-0.75 0.07-1.09 0.22c-0.33 0.14-0.63 0.34-0.88 0.6c-0.25 0.26-0.44 0.57-0.58 0.94c-0.14 0.36-0.22 0.77-0.22 1.22c0 0.42 0.07 0.82 0.22 1.18c0.14 0.36 0.34 0.68 0.58 0.94c0.25 0.27 0.55 0.48 0.88 0.64c0.34 0.15 0.7 0.23 1.09 0.23c0.38 0 0.74-0.07 1.08-0.22c0.34-0.14 0.64-0.35 0.89-0.61c0.25-0.26 0.45-0.57 0.59-0.94c0.15-0.37 0.23-0.78 0.23-1.22zm7.19 5.59h-2.82v-15.35h2.82v9.68l4.17-5.29h3.22l-3.64 4.57l3.64 6.39h-3.22l-2.23-3.99l-1.95 2.58v1.4z" />
			<path id="Layer" fill-rule="evenodd" class="s0" d="m53.87 55h-2.8v-15.35h2.8v4.85c0.34-0.25 0.68-0.43 1.04-0.53c0.36-0.11 0.72-0.16 1.09-0.16c0.68 0 1.31 0.13 1.91 0.39c0.59 0.25 1.11 0.61 1.55 1.06c0.44 0.44 0.79 0.97 1.05 1.57c0.26 0.59 0.39 1.23 0.39 1.91v6.28h-2.82v-6.28h0.02c0-0.29-0.05-0.56-0.16-0.81c-0.11-0.26-0.26-0.49-0.45-0.68c-0.19-0.19-0.41-0.34-0.67-0.45c-0.25-0.11-0.52-0.16-0.81-0.16c-0.29 0-0.57 0.05-0.83 0.16c-0.26 0.11-0.49 0.26-0.68 0.45c-0.19 0.19-0.34 0.42-0.45 0.68c-0.11 0.25-0.16 0.52-0.16 0.81v6.28zm17-1.28c-0.23 0.2-0.47 0.4-0.73 0.58c-0.25 0.18-0.52 0.34-0.8 0.47c-0.28 0.13-0.57 0.23-0.87 0.31c-0.29 0.08-0.59 0.12-0.9 0.12c-0.68 0-1.31-0.12-1.91-0.36c-0.59-0.24-1.12-0.58-1.57-1.02c-0.44-0.44-0.8-0.98-1.06-1.61c-0.25-0.64-0.38-1.35-0.38-2.13v-6.07h2.79v6.07c0 0.37 0.05 0.7 0.16 0.99c0.12 0.29 0.27 0.53 0.46 0.73c0.19 0.2 0.41 0.35 0.67 0.45c0.26 0.1 0.54 0.15 0.83 0.15c0.29 0 0.56-0.06 0.81-0.19c0.26-0.14 0.49-0.31 0.68-0.53c0.19-0.22 0.34-0.46 0.45-0.74c0.11-0.28 0.16-0.57 0.16-0.86v-6.07h2.8v10.98h-0.68l-0.92-1.28zm14.73-4.31c0 0.86-0.15 1.65-0.44 2.36c-0.29 0.71-0.69 1.32-1.2 1.84c-0.51 0.51-1.1 0.9-1.78 1.18c-0.68 0.28-1.4 0.42-2.18 0.42c-0.77 0-1.5-0.14-2.18-0.43c-0.68-0.29-1.27-0.69-1.78-1.2c-0.51-0.51-0.91-1.12-1.2-1.83c-0.29-0.71-0.44-1.49-0.44-2.34v-9.76h2.81v5.13c0.15-0.19 0.33-0.36 0.54-0.51c0.22-0.15 0.45-0.27 0.7-0.37c0.25-0.1 0.51-0.17 0.78-0.22c0.27-0.05 0.53-0.08 0.78-0.08c0.78 0 1.51 0.15 2.18 0.44c0.68 0.29 1.28 0.69 1.78 1.21c0.51 0.52 0.91 1.13 1.2 1.85c0.29 0.7 0.44 1.48 0.44 2.32zm-2.82 0c0-0.42-0.08-0.82-0.23-1.18c-0.14-0.37-0.34-0.69-0.59-0.95c-0.25-0.27-0.55-0.48-0.89-0.63c-0.33-0.15-0.69-0.23-1.08-0.23c-0.38 0-0.75 0.09-1.09 0.26c-0.33 0.16-0.63 0.39-0.88 0.67c-0.25 0.27-0.45 0.59-0.59 0.95c-0.14 0.36-0.22 0.72-0.22 1.11c0 0.42 0.07 0.82 0.22 1.18c0.14 0.36 0.34 0.68 0.59 0.94c0.25 0.27 0.55 0.48 0.88 0.64c0.34 0.15 0.7 0.23 1.09 0.23c0.38 0 0.74-0.08 1.08-0.23c0.34-0.16 0.64-0.37 0.89-0.64c0.25-0.27 0.45-0.58 0.59-0.94c0.15-0.36 0.23-0.76 0.23-1.18z" />
			<path id="Layer" class="s1" d="m1.5 34v-14.46l9.5-11.4v54.26c-5.37-0.73-9.5-5.33-9.5-10.9v-17.5zm12.5 28.5v-57h16c10.22 0 18.5 8.28 18.5 18.5v27.5c0 6.08-4.92 11-11 11h-12.5h-11zm-4.7-57l-7.8 9.36v-2.81l5.45-6.54h2.34z" />
			<path id="Layer" fill-rule="evenodd" class="s2" d="m43.38 43.77c0 1.83-0.35 3.54-1.05 5.14c-0.7 1.6-1.65 3-2.86 4.21c-1.19 1.19-2.58 2.13-4.18 2.83c-1.6 0.7-3.31 1.05-5.14 1.05h-22.06v-44.11h22.06c1.83 0 3.54 0.35 5.14 1.05c1.6 0.7 2.99 1.65 4.18 2.86c1.21 1.19 2.16 2.58 2.86 4.18c0.7 1.6 1.05 3.31 1.05 5.14c0 0.82-0.11 1.66-0.34 2.52c-0.23 0.86-0.54 1.69-0.95 2.49c-0.41 0.8-0.9 1.53-1.48 2.18c-0.57 0.66-1.21 1.2-1.91 1.63c0.72 0.39 1.36 0.92 1.94 1.6c0.57 0.66 1.07 1.38 1.48 2.18c0.41 0.8 0.72 1.64 0.92 2.52c0.23 0.86 0.34 1.7 0.34 2.52zm-26.46 4.4h13.23c0.62 0 1.19-0.11 1.72-0.34c0.53-0.23 0.99-0.53 1.38-0.92c0.41-0.41 0.73-0.88 0.95-1.42c0.23-0.53 0.34-1.11 0.34-1.72c0-0.62-0.11-1.19-0.34-1.72c-0.23-0.53-0.54-0.99-0.95-1.38c-0.39-0.41-0.85-0.73-1.38-0.95c-0.53-0.23-1.11-0.34-1.72-0.34h-13.23v8.8zm0-17.63h13.23c0.62 0 1.19-0.11 1.72-0.34c0.53-0.23 0.99-0.53 1.38-0.92c0.41-0.41 0.73-0.88 0.95-1.41c0.23-0.55 0.34-1.14 0.34-1.75c0-0.62-0.11-1.19-0.34-1.72c-0.23-0.53-0.54-0.99-0.95-1.38c-0.39-0.41-0.85-0.73-1.38-0.95c-0.53-0.23-1.11-0.34-1.72-0.34h-13.23v8.83z" />
		</g>
	</g>
</svg>
