<svg width="90" height="70" viewBox="0 0 90 70" fill="none" xmlns="http://www.w3.org/2000/svg">
<g clip-path="url(#clip0_184_16)">
<path d="M61.6792 28.4116C61.6792 29.2319 61.5322 29.9976 61.2383 30.7085C60.9443 31.4126 60.5444 32.0244 60.0386 32.5439C59.5327 33.0566 58.938 33.4634 58.2544 33.7642C57.5776 34.0581 56.8496 34.2051 56.0703 34.2051C55.2979 34.2051 54.5698 34.0581 53.8862 33.7642C53.2095 33.4634 52.6147 33.0566 52.1021 32.5439C51.5962 32.0244 51.1963 31.4126 50.9023 30.7085C50.6084 29.9976 50.4614 29.2319 50.4614 28.4116C50.4614 27.5776 50.6084 26.8052 50.9023 26.0942C51.1963 25.3833 51.5962 24.7715 52.1021 24.2588C52.6147 23.7393 53.2095 23.3325 53.8862 23.0386C54.5698 22.7446 55.2979 22.5977 56.0703 22.5977C56.8496 22.5977 57.5776 22.7378 58.2544 23.0181C58.938 23.2915 59.5327 23.6846 60.0386 24.1973C60.5444 24.7031 60.9443 25.3149 61.2383 26.0327C61.5322 26.7437 61.6792 27.5366 61.6792 28.4116ZM58.8594 28.4116C58.8594 27.9604 58.7842 27.5537 58.6338 27.1914C58.4902 26.8223 58.292 26.5078 58.0391 26.248C57.7861 25.9814 57.4888 25.7798 57.147 25.6431C56.812 25.4995 56.4531 25.4277 56.0703 25.4277C55.6875 25.4277 55.3252 25.4995 54.9834 25.6431C54.6484 25.7798 54.3545 25.9814 54.1016 26.248C53.8555 26.5078 53.6606 26.8223 53.5171 27.1914C53.3735 27.5537 53.3018 27.9604 53.3018 28.4116C53.3018 28.8354 53.3735 29.2285 53.5171 29.5908C53.6606 29.9531 53.8555 30.2676 54.1016 30.5342C54.3545 30.8008 54.6484 31.0127 54.9834 31.1699C55.3252 31.3203 55.6875 31.3955 56.0703 31.3955C56.4531 31.3955 56.812 31.3237 57.147 31.1802C57.4888 31.0366 57.7861 30.835 58.0391 30.5752C58.292 30.3154 58.4902 30.001 58.6338 29.6318C58.7842 29.2627 58.8594 28.856 58.8594 28.4116ZM73.8403 28.4116C73.8403 29.2319 73.6934 29.9976 73.3994 30.7085C73.1055 31.4126 72.7056 32.0244 72.1997 32.5439C71.6938 33.0566 71.0991 33.4634 70.4155 33.7642C69.7388 34.0581 69.0107 34.2051 68.2314 34.2051C67.459 34.2051 66.731 34.0581 66.0474 33.7642C65.3706 33.4634 64.7759 33.0566 64.2632 32.5439C63.7573 32.0244 63.3574 31.4126 63.0635 30.7085C62.7695 29.9976 62.6226 29.2319 62.6226 28.4116C62.6226 27.5776 62.7695 26.8052 63.0635 26.0942C63.3574 25.3833 63.7573 24.7715 64.2632 24.2588C64.7759 23.7393 65.3706 23.3325 66.0474 23.0386C66.731 22.7446 67.459 22.5977 68.2314 22.5977C69.0107 22.5977 69.7388 22.7378 70.4155 23.0181C71.0991 23.2915 71.6938 23.6846 72.1997 24.1973C72.7056 24.7031 73.1055 25.3149 73.3994 26.0327C73.6934 26.7437 73.8403 27.5366 73.8403 28.4116ZM71.0205 28.4116C71.0205 27.9604 70.9453 27.5537 70.7949 27.1914C70.6514 26.8223 70.4531 26.5078 70.2002 26.248C69.9473 25.9814 69.6499 25.7798 69.3081 25.6431C68.9731 25.4995 68.6143 25.4277 68.2314 25.4277C67.8486 25.4277 67.4863 25.4995 67.1445 25.6431C66.8096 25.7798 66.5156 25.9814 66.2627 26.248C66.0166 26.5078 65.8218 26.8223 65.6782 27.1914C65.5347 27.5537 65.4629 27.9604 65.4629 28.4116C65.4629 28.8354 65.5347 29.2285 65.6782 29.5908C65.8218 29.9531 66.0166 30.2676 66.2627 30.5342C66.5156 30.8008 66.8096 31.0127 67.1445 31.1699C67.4863 31.3203 67.8486 31.3955 68.2314 31.3955C68.6143 31.3955 68.9731 31.3237 69.3081 31.1802C69.6499 31.0366 69.9473 30.835 70.2002 30.5752C70.4531 30.3154 70.6514 30.001 70.7949 29.6318C70.9453 29.2627 71.0205 28.856 71.0205 28.4116ZM78.2085 34H75.3887V18.6499H78.2085V28.3296L82.3818 23.0386H85.6016L81.9614 27.6118L85.6016 34H82.3818L80.1567 30.0112L78.2085 32.5952V34Z" fill="#051014"/>
<path d="M53.8657 55H51.0664V39.6499H53.8657V44.5C54.2007 44.2471 54.5459 44.0693 54.9014 43.9668C55.2568 43.8574 55.6191 43.8027 55.9883 43.8027C56.665 43.8027 57.3008 43.9326 57.8955 44.1924C58.4902 44.4453 59.0063 44.7974 59.4438 45.2485C59.8882 45.6929 60.2368 46.2158 60.4897 46.8174C60.7495 47.4121 60.8794 48.0479 60.8794 48.7246V55H58.0596V48.7246H58.0801C58.0801 48.4375 58.0254 48.1675 57.916 47.9146C57.8066 47.6548 57.6562 47.4292 57.4648 47.2378C57.2734 47.0464 57.0513 46.896 56.7983 46.7866C56.5454 46.6772 56.2754 46.6226 55.9883 46.6226C55.6943 46.6226 55.4175 46.6772 55.1577 46.7866C54.8979 46.896 54.6724 47.0464 54.481 47.2378C54.2896 47.4292 54.1392 47.6548 54.0298 47.9146C53.9204 48.1675 53.8657 48.4375 53.8657 48.7246V55ZM70.8667 53.7183C70.6411 53.9233 70.3984 54.1182 70.1387 54.3027C69.8857 54.4805 69.6191 54.6377 69.3389 54.7744C69.0586 54.9043 68.7681 55.0068 68.4673 55.082C68.1733 55.1641 67.8726 55.2051 67.5649 55.2051C66.8882 55.2051 66.2524 55.0854 65.6577 54.8462C65.063 54.6069 64.54 54.2686 64.0889 53.8311C63.6445 53.3867 63.2925 52.8501 63.0327 52.2212C62.7798 51.5854 62.6533 50.8745 62.6533 50.0884V44.0181H65.4424V50.0884C65.4424 50.4575 65.4971 50.7891 65.6064 51.083C65.7227 51.3701 65.8765 51.6128 66.0679 51.811C66.2593 52.0093 66.4814 52.1597 66.7344 52.2622C66.9941 52.3647 67.271 52.416 67.5649 52.416C67.8521 52.416 68.1221 52.3511 68.375 52.2212C68.6348 52.0845 68.8604 51.9067 69.0518 51.688C69.2432 51.4692 69.3936 51.2231 69.5029 50.9497C69.6123 50.6694 69.667 50.3823 69.667 50.0884V44.0181H72.4663V55H71.7896L70.8667 53.7183ZM85.6016 49.4116C85.6016 50.2729 85.4546 51.0591 85.1606 51.77C84.8667 52.481 84.4668 53.0928 83.9609 53.6055C83.4551 54.1113 82.8604 54.5044 82.1768 54.7847C81.5 55.0649 80.772 55.2051 79.9927 55.2051C79.2202 55.2051 78.4922 55.0615 77.8086 54.7744C77.1318 54.4873 76.5371 54.0874 76.0244 53.5747C75.5186 53.062 75.1187 52.4536 74.8247 51.7495C74.5308 51.0386 74.3838 50.2593 74.3838 49.4116V39.6499H77.1934V44.7769C77.3438 44.5854 77.5249 44.4146 77.7368 44.2642C77.9556 44.1138 78.188 43.9907 78.4341 43.895C78.687 43.7993 78.9468 43.7275 79.2134 43.6797C79.48 43.625 79.7397 43.5977 79.9927 43.5977C80.772 43.5977 81.5 43.7446 82.1768 44.0386C82.8604 44.3257 83.4551 44.729 83.9609 45.2485C84.4668 45.7681 84.8667 46.3833 85.1606 47.0942C85.4546 47.7983 85.6016 48.5708 85.6016 49.4116ZM82.7817 49.4116C82.7817 48.9878 82.7065 48.5947 82.5562 48.2324C82.4126 47.8633 82.2144 47.5454 81.9614 47.2788C81.7085 47.0122 81.4111 46.8037 81.0693 46.6533C80.7344 46.5029 80.3755 46.4277 79.9927 46.4277C79.6099 46.4277 79.2476 46.5132 78.9058 46.6841C78.5708 46.8481 78.2769 47.0703 78.0239 47.3506C77.771 47.624 77.5728 47.9419 77.4292 48.3042C77.2856 48.6597 77.2139 49.0288 77.2139 49.4116C77.2139 49.8354 77.2856 50.2285 77.4292 50.5908C77.5728 50.9531 77.771 51.2676 78.0239 51.5342C78.2769 51.8008 78.5708 52.0127 78.9058 52.1699C79.2476 52.3203 79.6099 52.3955 79.9927 52.3955C80.3755 52.3955 80.7344 52.3203 81.0693 52.1699C81.4111 52.0127 81.7085 51.8008 81.9614 51.5342C82.2144 51.2676 82.4126 50.9531 82.5562 50.5908C82.7065 50.2285 82.7817 49.8354 82.7817 49.4116Z" fill="#051014"/>
<path d="M1.5 34V19.5431L11 8.14308V62.3986C5.63447 61.667 1.5 57.0663 1.5 51.5V34ZM14 62.5V5.5H30C40.2173 5.5 48.5 13.7827 48.5 24V51.5C48.5 57.5751 43.5751 62.5 37.5 62.5H25H14ZM9.29744 5.5L1.5 14.8569V12.0431L6.95256 5.5H9.29744Z" fill="url(#paint0_linear_184_16)" stroke="#051014" stroke-width="3"/>
<path d="M43.375 43.7725C43.375 45.5977 43.0264 47.3101 42.3291 48.9097C41.6318 50.5093 40.6782 51.9141 39.4683 53.124C38.2788 54.3135 36.8843 55.2568 35.2847 55.9541C33.6851 56.6514 31.9727 57 30.1475 57H8.09131L8.09131 12.8877H30.1475C31.9727 12.8877 33.6851 13.2363 35.2847 13.9336C36.8843 14.6309 38.2788 15.5845 39.4683 16.7944C40.6782 17.9839 41.6318 19.3784 42.3291 20.978C43.0264 22.5776 43.375 24.29 43.375 26.1152C43.375 26.9355 43.2622 27.7764 43.0366 28.6377C42.811 29.499 42.4932 30.3296 42.083 31.1294C41.6729 31.9292 41.1807 32.6572 40.6064 33.3135C40.0322 33.9697 39.3965 34.5132 38.6992 34.9438C39.417 35.3335 40.063 35.8667 40.6372 36.5435C41.2114 37.1997 41.7036 37.9277 42.1138 38.7275C42.5239 39.5273 42.8315 40.3682 43.0366 41.25C43.2622 42.1113 43.375 42.9521 43.375 43.7725ZM16.9199 48.1714H30.1475C30.7627 48.1714 31.3369 48.0586 31.8701 47.833C32.4033 47.6074 32.8647 47.2998 33.2544 46.9102C33.6646 46.5 33.9824 46.0283 34.208 45.4951C34.4336 44.9619 34.5464 44.3877 34.5464 43.7725C34.5464 43.1572 34.4336 42.583 34.208 42.0498C33.9824 41.5166 33.6646 41.0552 33.2544 40.6655C32.8647 40.2554 32.4033 39.9375 31.8701 39.7119C31.3369 39.4863 30.7627 39.3735 30.1475 39.3735H16.9199L16.9199 48.1714ZM16.9199 30.5449H30.1475C30.7627 30.5449 31.3369 30.4321 31.8701 30.2065C32.4033 29.981 32.8647 29.6733 33.2544 29.2837C33.6646 28.8735 33.9824 28.4019 34.208 27.8687C34.4336 27.3149 34.5464 26.7305 34.5464 26.1152C34.5464 25.5 34.4336 24.9258 34.208 24.3926C33.9824 23.8594 33.6646 23.3979 33.2544 23.0083C32.8647 22.5981 32.4033 22.2803 31.8701 22.0547C31.3369 21.8291 30.7627 21.7163 30.1475 21.7163H16.9199V30.5449Z" fill="white"/>
</g>
<defs>
<linearGradient id="paint0_linear_184_16" x1="25" y1="4" x2="25" y2="64" gradientUnits="userSpaceOnUse">
<stop stop-color="#005BC6"/>
<stop offset="1" stop-color="#00B0C8"/>
</linearGradient>
<clipPath id="clip0_184_16">
<rect width="90" height="70" fill="white"/>
</clipPath>
</defs>
</svg>
